<svg width="166" height="236" viewBox="0 0 166 236" fill="none" xmlns="http://www.w3.org/2000/svg">
<g clip-path="url(#clip0)">
<path d="M79.5965 191.018L78.2953 189.5C89.3045 180.065 103.006 168.323 108.135 152.803C113.19 137.504 109.387 119.034 98.2098 104.601C88.6975 92.3172 74.0092 82.6443 55.7331 76.6275C52.1282 75.4407 48.3854 74.3865 44.7657 73.3667C36.0164 70.9025 26.9692 68.3538 18.957 63.6962C7.92165 57.2809 -2.10177 44.6799 0.382051 30.9901C1.22526 26.6097 3.27976 22.5535 6.3123 19.282C9.34485 16.0105 13.2339 13.6548 17.5379 12.4824L18.0699 14.4106C14.1268 15.484 10.5635 17.6412 7.78438 20.6374C5.00527 23.6336 3.12166 27.3487 2.34729 31.3613C0.039201 44.0829 9.53067 55.9027 19.9622 61.9673C27.7553 66.4975 36.6785 69.011 45.3079 71.4417C48.9481 72.4671 52.7125 73.5276 56.3588 74.728C75.0151 80.87 90.0338 90.7761 99.791 103.376C111.37 118.329 115.295 137.509 110.034 153.431C104.73 169.479 90.7944 181.422 79.5965 191.018Z" fill="#F1F1F1"/>
<path d="M32.1539 20.1089C41.6009 18.0678 48.4556 12.6934 47.4642 8.10486C46.4728 3.51631 38.0108 1.45119 28.5638 3.49228C19.1168 5.53336 12.2622 10.9077 13.2536 15.4963C14.2449 20.0848 22.7069 22.15 32.1539 20.1089Z" fill="#F1F1F1"/>
<path d="M57.6644 71.8894C67.1114 69.8483 73.966 64.4739 72.9747 59.8854C71.9833 55.2968 63.5213 53.2317 54.0743 55.2728C44.6273 57.3139 37.7727 62.6883 38.7641 67.2768C39.7554 71.8653 48.2174 73.9305 57.6644 71.8894Z" fill="#F1F1F1"/>
<path d="M28.2869 87.4442C37.7339 85.4031 44.5885 80.0287 43.5971 75.4402C42.6057 70.8516 34.1437 68.7865 24.6967 70.8276C15.2497 72.8687 8.39511 78.2431 9.38649 82.8316C10.3779 87.4202 18.8399 89.4853 28.2869 87.4442Z" fill="#F1F1F1"/>
<path d="M158.423 144.299C162.669 133.19 163.284 123.104 159.796 121.771C156.309 120.438 150.04 128.363 145.794 139.472C141.548 150.581 140.933 160.667 144.42 162C147.908 163.333 154.177 155.408 158.423 144.299Z" fill="#2F2E41"/>
<path d="M112.301 217.475C136.087 217.475 155.368 198.193 155.368 174.407C155.368 150.622 136.087 131.34 112.301 131.34C88.5157 131.34 69.2338 150.622 69.2338 174.407C69.2338 198.193 88.5157 217.475 112.301 217.475Z" fill="#2F2E41"/>
<path d="M105.759 208.207H92.6755V231.649H105.759V208.207Z" fill="#2F2E41"/>
<path d="M131.927 208.207H118.843V231.649H131.927V208.207Z" fill="#2F2E41"/>
<path d="M103.579 236.01C109.6 236.01 114.482 234.179 114.482 231.921C114.482 229.663 109.6 227.833 103.579 227.833C97.557 227.833 92.6755 229.663 92.6755 231.921C92.6755 234.179 97.557 236.01 103.579 236.01Z" fill="#2F2E41"/>
<path d="M129.746 235.465C135.768 235.465 140.649 233.634 140.649 231.376C140.649 229.118 135.768 227.287 129.746 227.287C123.725 227.287 118.843 229.118 118.843 231.376C118.843 233.634 123.725 235.465 129.746 235.465Z" fill="#2F2E41"/>
<path d="M113.391 178.223C121.521 178.223 128.111 171.633 128.111 163.504C128.111 155.375 121.521 148.785 113.391 148.785C105.262 148.785 98.6722 155.375 98.6722 163.504C98.6722 171.633 105.262 178.223 113.391 178.223Z" fill="white"/>
<path d="M113.391 168.411C116.101 168.411 118.298 166.214 118.298 163.504C118.298 160.794 116.101 158.598 113.391 158.598C110.682 158.598 108.485 160.794 108.485 163.504C108.485 166.214 110.682 168.411 113.391 168.411Z" fill="#3F3D56"/>
<path d="M70.5244 134.356C67.0469 118.782 78.1631 103.046 95.353 99.2072C112.543 95.3688 129.297 104.882 132.775 120.456C136.252 136.03 124.86 141.774 107.67 145.612C90.4799 149.45 74.0019 149.93 70.5244 134.356Z" fill="#E6E6E6"/>
<path d="M83.2493 163.652C84.8492 160.278 77.4353 153.412 66.6899 148.316C55.9445 143.22 45.9366 141.823 44.3367 145.196C42.7368 148.569 50.1507 155.436 60.8961 160.532C71.6415 165.628 81.6494 167.025 83.2493 163.652Z" fill="#2F2E41"/>
<path d="M91.1466 189.944C91.1466 194.16 102 202.483 114.043 202.483C126.086 202.483 137.378 190.616 137.378 186.401C137.378 182.186 126.086 187.219 114.043 187.219C102 187.219 91.1466 185.729 91.1466 189.944Z" fill="white"/>
</g>
<defs>
<clipPath id="clip0">
<rect width="166" height="236" fill="white"/>
</clipPath>
</defs>
</svg>
