<svg width="128" height="146" viewBox="0 0 128 146" fill="none" xmlns="http://www.w3.org/2000/svg">
<g clip-path="url(#clip0)">
<path d="M63.7276 118.691C87.513 118.691 106.795 99.4089 106.795 75.6235C106.795 51.838 87.513 32.5562 63.7276 32.5562C39.9422 32.5562 20.6603 51.838 20.6603 75.6235C20.6603 99.4089 39.9422 118.691 63.7276 118.691Z" fill="#2F2E41"/>
<path d="M93.5843 97.9543L82.4204 104.777L94.6446 124.779L105.809 117.956L93.5843 97.9543Z" fill="#2F2E41"/>
<path d="M71.2565 111.6L60.0925 118.423L72.3168 138.425L83.4807 131.602L71.2565 111.6Z" fill="#2F2E41"/>
<path d="M98.7795 127.363C103.918 124.223 107.128 120.116 105.951 118.189C104.773 116.262 99.6533 117.246 94.5152 120.386C89.3771 123.526 86.1665 127.633 87.3441 129.56C88.5216 131.487 93.6414 130.503 98.7795 127.363Z" fill="#2F2E41"/>
<path d="M76.1674 140.544C81.3055 137.404 84.5161 133.296 83.3386 131.369C82.161 129.443 77.0412 130.426 71.9031 133.566C66.7651 136.707 63.5544 140.814 64.732 142.741C65.9095 144.668 71.0293 143.684 76.1674 140.544Z" fill="#2F2E41"/>
<path d="M39.5119 68.4034C42.4422 65.4753 37.2566 55.5349 27.9296 46.2007C18.6027 36.8665 8.66619 31.6733 5.73591 34.6013C2.80563 37.5293 7.9912 47.4698 17.3182 56.804C26.6452 66.1382 36.5816 71.3314 39.5119 68.4034Z" fill="#2F2E41"/>
<path d="M121.956 112.127C125.359 109.765 122.016 99.063 114.49 88.2243C106.964 77.3855 98.1048 70.5143 94.7022 72.877C91.2996 75.2396 94.6423 85.9414 102.168 96.7802C109.694 107.619 118.554 114.49 121.956 112.127Z" fill="#2F2E41"/>
<path d="M50.5396 78.2394C58.6687 78.2394 65.2587 71.6494 65.2587 63.5202C65.2587 55.391 58.6687 48.801 50.5396 48.801C42.4104 48.801 35.8203 55.391 35.8203 63.5202C35.8203 71.6494 42.4104 78.2394 50.5396 78.2394Z" fill="white"/>
<path d="M45.5396 63.4266C48.2494 63.4266 50.446 61.2299 50.446 58.5202C50.446 55.8105 48.2494 53.6138 45.5396 53.6138C42.8299 53.6138 40.6332 55.8105 40.6332 58.5202C40.6332 61.2299 42.8299 63.4266 45.5396 63.4266Z" fill="#3F3D56"/>
<path d="M31.5852 88.0733C28.7941 92.6463 32.513 98.8329 39.8915 101.891C47.2701 104.95 55.5143 103.722 58.3054 99.1493L58.3154 99.133C61.0993 94.557 55.6921 91.1335 48.3108 88.0795C40.9295 85.0254 34.3691 83.4973 31.5852 88.0733Z" fill="white"/>
<path d="M49.2768 21.5472C53.1224 6.06016 70.0973 -3.05361 87.1915 1.19099C104.286 5.43559 115.026 21.4313 111.18 36.9183C107.335 52.4053 94.5763 52.4553 77.4821 48.2106C60.3879 43.966 45.4312 37.0342 49.2768 21.5472Z" fill="#E6E6E6"/>
</g>
<defs>
<clipPath id="clip0">
<rect width="128" height="146" fill="white"/>
</clipPath>
</defs>
</svg>
