<svg width="203" height="261" viewBox="0 0 203 261" fill="none" xmlns="http://www.w3.org/2000/svg">
<path d="M46.7869 155.874C55.2369 158.844 64.3093 159.589 73.1303 158.035C81.9513 156.481 90.2234 152.682 97.1499 147.003C114.789 132.196 120.321 107.811 124.82 85.2262L138.13 18.421L110.264 37.6083C90.2233 51.4068 69.7323 65.6487 55.8575 85.6347C41.9827 105.621 35.9295 132.906 47.0743 154.532" fill="#F8ACF2"/>
<path d="M51.0897 241.405C47.5824 215.852 43.9738 189.969 46.4399 164.143C48.6253 141.205 55.6234 118.806 69.8702 100.433C77.4324 90.7006 86.6342 82.362 97.0619 75.7919C99.7804 74.0764 102.283 78.3842 99.5762 80.0931C81.5329 91.4956 67.5769 108.334 59.7202 128.179C51.0432 150.248 49.65 174.306 51.1446 197.749C52.048 211.926 53.9677 226.011 55.8957 240.078C56.048 240.714 55.9529 241.385 55.6298 241.953C55.3068 242.522 54.7797 242.947 54.1554 243.142C53.5184 243.314 52.8394 243.227 52.2659 242.901C51.6923 242.575 51.2703 242.037 51.0914 241.402L51.0897 241.405Z" fill="#3F3D56"/>
<path d="M76.3351 200.403C79.9585 205.912 84.9399 210.395 90.799 213.42C96.6582 216.445 103.198 217.91 109.788 217.674C126.726 216.87 140.842 205.053 153.548 193.83L191.137 160.642L166.26 159.451C148.37 158.594 130.018 157.791 112.978 163.314C95.9377 168.837 80.2228 182.109 77.1074 199.747" fill="#F8ACF2"/>
<path d="M41.1756 256.094C58.0612 226.217 77.6454 193.012 112.642 182.398C122.372 179.458 132.575 178.404 142.7 179.294C145.892 179.57 145.095 184.489 141.91 184.215C124.936 182.806 107.996 187.288 93.9398 196.906C80.4137 206.113 69.8818 218.913 60.969 232.486C55.5087 240.801 50.6181 249.468 45.7274 258.123C44.1647 260.89 39.5946 258.892 41.1756 256.094Z" fill="#3F3D56"/>
</svg>
