<svg width="41" height="71" viewBox="0 0 41 71" fill="none" xmlns="http://www.w3.org/2000/svg">
<g id="undraw_fall_thyk 1">
<path id="Vector" d="M2.31769 35.5238C2.70588 35.4398 3.11155 35.5134 3.44546 35.7284C3.77937 35.9435 4.01418 36.2824 4.09822 36.6706C4.18226 37.0588 4.10865 37.4644 3.89359 37.7984C3.67852 38.1323 3.33963 38.3671 2.95144 38.4511C2.14309 38.6261 0 37.5578 0 37.5578C0 37.5578 1.50934 35.6988 2.31769 35.5238Z" fill="#F8ACF2"/>
<path id="Vector_2" d="M2.67556 66.2703C2.92969 65.965 3.29467 65.7733 3.6902 65.7371C4.08573 65.701 4.47941 65.8235 4.78464 66.0776C5.08987 66.3317 5.28164 66.6967 5.31777 67.0923C5.3539 67.4878 5.23142 67.8815 4.97729 68.1867C4.44808 68.8223 2.10162 69.3 2.10162 69.3C2.10162 69.3 2.14635 66.9059 2.67556 66.2703Z" fill="#F8ACF2"/>
<path id="Vector_3" d="M26.1041 63.6078C22.8627 61.8008 20.8448 59.3338 20.1064 56.2753C19.5582 54.0044 19.7157 51.4491 20.5746 48.6802C21.2113 46.6387 22.166 44.7104 23.4034 42.9663C29.9679 33.6744 30.5604 27.6197 29.9015 24.1767C29.179 20.4016 26.8318 18.8337 26.8082 18.8183L26.9095 18.6625C26.9337 18.6782 29.3428 20.2825 30.0826 24.1343C30.5091 26.3549 30.3085 28.8869 29.4862 31.66C28.4629 35.1113 26.4674 38.9514 23.5552 43.0736C22.3291 44.8017 21.3831 46.7124 20.7521 48.7352C19.3434 53.2765 19.1441 59.515 26.1946 63.4456L26.1041 63.6078Z" fill="#2F2E41"/>
<path id="Vector_4" d="M20.184 46.4022C17.6285 44.9778 17.6997 42.7202 18.2093 41.0772C18.4353 40.3525 18.7742 39.668 19.2134 39.0489C21.5131 35.7937 21.721 33.679 21.4904 32.4782C21.2399 31.1743 20.4364 30.639 20.4283 30.6338L20.5296 30.4779C20.5653 30.5011 21.4076 31.0623 21.6729 32.4432C22.0182 34.2413 21.2418 36.4998 19.3652 39.1562C18.9372 39.7593 18.6071 40.4262 18.3869 41.1322C17.8976 42.7096 17.8279 44.8761 20.2744 46.24L20.184 46.4022Z" fill="#2F2E41"/>
<path id="Vector_5" d="M31.6812 25.7714L31.5907 25.6091C34.0373 24.2452 33.9676 22.0786 33.4783 20.5013C33.2581 19.7953 32.9279 19.1284 32.5 18.5253C30.6233 15.869 29.8469 13.6104 30.1923 11.8123C30.4575 10.4315 31.2999 9.87023 31.3356 9.84705L31.437 10.0028C31.4289 10.0081 30.6213 10.5505 30.3734 11.8547C30.1453 13.0548 30.3554 15.1676 32.6518 18.418C33.091 19.0371 33.4298 19.7216 33.6558 20.4462C34.1655 22.0892 34.2367 24.3468 31.6812 25.7714Z" fill="#2F2E41"/>
<path id="Vector_6" d="M37.1373 16.5244C36.9373 16.8312 36.6788 17.0956 36.3767 17.3025C36.0745 17.5093 35.7345 17.6546 35.3762 17.7301C35.0178 17.8055 34.6481 17.8097 34.2882 17.7422C33.9282 17.6747 33.5851 17.537 33.2784 17.3369C32.9717 17.1368 32.7074 16.8783 32.5007 16.576C32.2939 16.2737 32.1487 15.9337 32.0734 15.5753C31.9981 15.217 31.9941 14.8473 32.0617 14.4873C32.1293 14.1274 32.2671 13.7844 32.4673 13.4777C33.3087 12.1882 37.5444 10.7981 37.5444 10.7981C37.5444 10.7981 37.9786 15.2349 37.1373 16.5244Z" fill="#F8ACF2"/>
<path id="Vector_7" d="M36.115 7.88176C35.915 8.18854 35.6566 8.45292 35.3544 8.65979C35.0522 8.86666 34.7122 9.01197 34.3539 9.08742C33.9955 9.16287 33.6258 9.16698 33.2659 9.09952C32.9059 9.03206 32.5628 8.89435 32.2561 8.69425C31.9494 8.49416 31.6851 8.23559 31.4784 7.93334C31.2716 7.63108 31.1264 7.29105 31.0511 6.93267C30.9758 6.57429 30.9718 6.20459 31.0394 5.84467C31.107 5.48476 31.2449 5.14169 31.4451 4.83506C32.2864 3.54549 36.5221 2.15546 36.5221 2.15546C36.5221 2.15546 36.9563 6.59219 36.115 7.88176Z" fill="#F8ACF2"/>
<path id="Vector_8" d="M31.6214 39.5453C30.9673 39.5463 30.3324 39.3247 29.8209 38.917C29.3095 38.5093 28.952 37.9396 28.8073 37.3018C28.6626 36.6639 28.7393 35.9958 29.0248 35.4073C29.3102 34.8188 29.7874 34.3449 30.3779 34.0636C31.7812 33.395 35.9901 34.3738 36.1687 34.4158L36.2815 34.4424L36.2311 34.5468C36.1512 34.7118 34.2593 38.5968 32.8558 39.2654C32.4704 39.4496 32.0486 39.5452 31.6214 39.5453ZM31.8558 34.0167C31.285 34.0167 30.7848 34.0757 30.4579 34.2314C29.8126 34.5388 29.3158 35.09 29.0769 35.7636C28.8379 36.4373 28.8764 37.1783 29.1838 37.8236C29.4912 38.4689 30.0423 38.9656 30.716 39.2046C31.3896 39.4435 32.1306 39.405 32.7759 39.0977C33.9968 38.516 35.6948 35.2059 36.0118 34.5709C35.5045 34.4582 33.4168 34.0167 31.8558 34.0167Z" fill="#2F2E41"/>
<path id="Vector_9" d="M25.94 13.9665C26.2106 14.2132 26.4299 14.5107 26.5854 14.8422C26.7409 15.1736 26.8297 15.5324 26.8466 15.8982C26.8634 16.2639 26.8081 16.6294 26.6837 16.9737C26.5593 17.318 26.3684 17.6345 26.1217 17.9051C25.875 18.1756 25.5774 18.3949 25.246 18.5505C24.9146 18.706 24.5557 18.7947 24.19 18.8116C23.8243 18.8285 23.4588 18.7731 23.1145 18.6488C22.7701 18.5244 22.4536 18.3334 22.1831 18.0867C21.0453 17.0493 20.3533 12.6454 20.3533 12.6454C20.3533 12.6454 24.8022 12.929 25.94 13.9665Z" fill="#F8ACF2"/>
<path id="Vector_10" d="M19.4349 25.6759C19.9813 26.1741 20.3074 26.8689 20.3414 27.6076C20.3755 28.3462 20.1148 29.0681 19.6166 29.6145C19.1184 30.1609 18.4235 30.487 17.6849 30.521C16.9463 30.5551 16.2244 30.2943 15.678 29.7961C14.5402 28.7587 13.8482 24.3548 13.8482 24.3548C13.8482 24.3548 18.2971 24.6385 19.4349 25.6759Z" fill="#F8ACF2"/>
<path id="Vector_11" d="M26.7265 27.3181C25.796 27.3181 24.0166 26.4369 23.935 26.3962L23.8312 26.3445L23.9043 26.2545C23.9668 26.1776 25.4437 24.3681 26.2745 24.1882C26.6867 24.099 27.1176 24.1771 27.4722 24.4056C27.8268 24.634 28.0762 24.9939 28.1655 25.4062C28.2547 25.8185 28.1765 26.2493 27.9481 26.6039C27.7197 26.9586 27.3598 27.208 26.9475 27.2972C26.8748 27.3119 26.8007 27.3189 26.7265 27.3181ZM24.1238 26.2812C24.562 26.4904 26.2405 27.2602 26.9082 27.1155C27.2721 27.0365 27.5897 26.8162 27.7912 26.5031C27.9927 26.1899 28.0617 25.8096 27.9829 25.4457C27.9041 25.0817 27.684 24.764 27.371 24.5623C27.058 24.3605 26.6777 24.2913 26.3137 24.3699C25.6458 24.5145 24.4362 25.9095 24.1238 26.2812Z" fill="#2F2E41"/>
<path id="Vector_12" d="M16.7463 65.1289C16.942 64.7836 17.2669 64.5301 17.6495 64.4242C18.0321 64.3183 18.4411 64.3686 18.7866 64.5641C19.1321 64.7596 19.3858 65.0843 19.492 65.4668C19.5982 65.8493 19.5482 66.2584 19.3529 66.604C18.9456 67.3238 16.722 68.2125 16.722 68.2125C16.722 68.2125 16.3389 65.8487 16.7463 65.1289Z" fill="#F8ACF2"/>
<path id="Vector_13" d="M11.8821 49.183C11.2406 49.1728 10.6007 49.1176 9.96696 49.018L9.85248 48.9994L9.89559 48.8917C9.93239 48.7997 10.8057 46.6333 11.5456 46.215C11.7274 46.1122 11.9277 46.0463 12.135 46.0209C12.3423 45.9955 12.5526 46.0112 12.7538 46.067C12.9551 46.1229 13.1434 46.2179 13.3079 46.3465C13.4725 46.4751 13.6101 46.6349 13.7129 46.8168C13.8156 46.9986 13.8816 47.1988 13.907 47.4062C13.9324 47.6135 13.9167 47.8238 13.8609 48.025C13.805 48.2263 13.71 48.4145 13.5814 48.5791C13.4527 48.7436 13.2929 48.8812 13.1111 48.984C12.8453 49.1343 12.3772 49.183 11.8821 49.183ZM10.1131 48.852C10.5936 48.9216 12.4248 49.1584 13.0197 48.8223C13.344 48.639 13.5821 48.3343 13.6818 47.9753C13.7815 47.6164 13.7345 47.2325 13.5511 46.9082C13.3678 46.5839 13.0631 46.3457 12.7042 46.2461C12.3452 46.1464 11.9614 46.1934 11.6371 46.3768C11.0423 46.713 10.3012 48.4043 10.1131 48.852Z" fill="#2F2E41"/>
</g>
</svg>
